<svg xmlns="http://www.w3.org/2000/svg" fill="currentColor" viewBox="0 0 654.4 367.9"><path d="M22.8 226.6V205c12 0 21.7-9.7 21.7-21.6v-21.7h21.7v21.7a43.4 43.4 0 0 1-43.4 43.3Zm90.6 0c-24 0-43.4-19.4-43.4-43.3v-43.4h21.7v43.3c0 12 9.7 21.7 21.7 21.7zm45 0 26.7-65.3h11.2l26.8 65.3h-11.6l-6.6-16.1h-28.3l-6.6 16.1zm22.2-26H201l-10-24.8zm44.3 9.3v-32.8h11v32.3c0 5.6 4 9 9.8 9 7.6 0 12-5 12.2-11.4v-29.9h11v49.5H260l-.8-7.2a17 17 0 0 1-15.7 8.6c-11.8 0-18.6-7.4-18.6-18Zm75.3 16.7c-10.7 0-16.5-5.3-16.5-15.1v-25H275V177h8.7v-15.5h11V177h12.8v9.4h-12.8v24.2q0 6.4 6.3 6.6h5.5v9.3zm13.7 0v-70h11v25.9a20 20 0 0 1 15.5-6.9c10.5 0 17.5 7.1 17.5 18.2v32.8h-11v-32.2c0-5.5-3.7-9.1-9.6-9.1-7.5 0-12.3 4.9-12.4 11.3v30zm51.2-24.5c0-16.4 10.7-26.4 24.5-26.4s23.3 9.8 23.6 25.8v2.6h-37.1c.7 8.7 6.1 14.6 14.5 14.6 5.7 0 10-2.8 11.7-7.7H413c-2.5 10.6-10.8 17-22.5 17-15 0-25.4-10.8-25.4-26Zm36.7-5.7c-1.3-7.1-5.7-11.4-12.2-11.4s-11.4 4.3-13 11.4zm19.3 30.2v-49.5h8.9l1 7.3c3-5.1 9.3-8.8 16.6-8.8 10.6 0 17.5 7.1 17.5 18.2v32.8h-11v-32.2c0-5.5-3.7-9.1-9.8-9.1-7.2 0-12 4.9-12.2 11.3v30zm74.6 0c-10.7 0-16.5-5.3-16.5-15.1v-25h-8.7V177h8.7v-15.5h11V177H503v9.4h-12.8v24.2q0 6.4 6.3 6.6h5.6v9.3zm12.5-62.6c0-3.6 2.8-6.4 6.4-6.4s6.4 2.8 6.4 6.4-2.7 6.5-6.4 6.5-6.4-2.8-6.4-6.5m.9 62.6v-49.5h11v49.5zm18.3-25c0-16.3 11-26 25.3-26 13.6 0 22.7 8.4 23.7 20.7h-10.9c-1-6.8-5.9-11.2-12.9-11.2-8.4 0-14 6.3-14 16.4 0 10.8 6.2 17 14.4 17 6.7 0 11.4-4.2 12.5-11.3h10.9C575 220 566.2 228 553 228c-16.1 0-25.6-11.6-25.6-26.5m54 11.3c.1-11.6 11.6-14 21.2-15.1 7.5-.9 13-1.1 13.1-5 0-5-3.8-8.1-10.2-8.1s-11.2 3.6-11.8 8.7h-11.1c1-10.5 10.3-17.8 23.1-17.8s20.7 7.3 20.7 17.9v22.4q0 2.1 2.5 2.1h2.7v8.6h-5.2q-7.7 0-9-5.8l-.5-1.7q-4.2 8.3-16.7 8.5c-11.4 0-18.9-5.5-18.8-14.7m34.3-4.8v-7c-1.9 3-6.6 3.6-11.9 4.2-6.1.8-11.3 1.6-11.3 6.9q.1 6.6 10 6.8c7.5 0 13.2-4.3 13.2-11"/></svg>